<svg width="30" height="30" viewBox="0 0 30 30" fill="none" xmlns="http://www.w3.org/2000/svg">
<path d="M13.8325 10.005L14.0625 9.99877H23.4375C24.475 9.99869 25.4732 10.3955 26.2274 11.1079C26.9816 11.8203 27.4347 12.7942 27.4937 13.83L27.5 14.0613V23.4363C27.5001 24.4739 27.1031 25.4723 26.3904 26.2266C25.6778 26.9808 24.7035 27.4338 23.6675 27.4925L23.4375 27.4988H14.0625C13.0248 27.4988 12.0265 27.1018 11.2722 26.3892C10.518 25.6765 10.065 24.7023 10.0062 23.6663L10 23.4375V14.0625C9.99993 13.0249 10.3969 12.0265 11.1096 11.2722C11.8222 10.518 12.7965 10.065 13.8325 10.0063V10.005ZM23.4375 11.8738H14.0625C13.5135 11.8738 12.9846 12.0802 12.5808 12.4521C12.1769 12.824 11.9277 13.3341 11.8825 13.8813L11.875 14.0613V23.4363C11.875 23.9855 12.0817 24.5145 12.4538 24.9184C12.826 25.3223 13.3364 25.5714 13.8837 25.6163L14.0625 25.6238H23.4375C23.9867 25.6237 24.5158 25.4171 24.9196 25.045C25.3235 24.6728 25.5726 24.1624 25.6175 23.615L25.625 23.4363V14.0613C25.625 13.4811 25.3945 12.9247 24.9843 12.5145C24.5741 12.1042 24.0177 11.8738 23.4375 11.8738ZM18.75 13.75C18.9986 13.75 19.2371 13.8488 19.4129 14.0246C19.5887 14.2004 19.6875 14.4389 19.6875 14.6875V17.81H22.8125C23.0611 17.81 23.2996 17.9088 23.4754 18.0846C23.6512 18.2604 23.75 18.4989 23.75 18.7475C23.75 18.9962 23.6512 19.2346 23.4754 19.4104C23.2996 19.5863 23.0611 19.685 22.8125 19.685H19.6875V22.8125C19.6875 23.0612 19.5887 23.2996 19.4129 23.4754C19.2371 23.6513 18.9986 23.75 18.75 23.75C18.5014 23.75 18.2629 23.6513 18.0871 23.4754C17.9113 23.2996 17.8125 23.0612 17.8125 22.8125V19.685H14.6875C14.4389 19.685 14.2004 19.5863 14.0246 19.4104C13.8488 19.2346 13.75 18.9962 13.75 18.7475C13.75 18.4989 13.8488 18.2604 14.0246 18.0846C14.2004 17.9088 14.4389 17.81 14.6875 17.81H17.8125V14.6875C17.8125 14.4389 17.9113 14.2004 18.0871 14.0246C18.2629 13.8488 18.5014 13.75 18.75 13.75ZM19.4775 5.29127L19.5425 5.51252L20.4087 8.74752H18.4675L17.7325 5.99752C17.6582 5.71989 17.53 5.45961 17.3551 5.23156C17.1802 5.00351 16.962 4.81216 16.7132 4.66845C16.4643 4.52473 16.1895 4.43147 15.9046 4.394C15.6196 4.35652 15.3301 4.37556 15.0525 4.45002L5.9975 6.87752C5.46891 7.01927 5.01265 7.354 4.71876 7.81566C4.42487 8.27732 4.31471 8.83237 4.41 9.37127L4.45 9.55627L6.8775 18.6113C6.99136 19.0368 7.23103 19.418 7.56513 19.705C7.89923 19.9921 8.3122 20.1716 8.75 20.22V22.1025C7.93728 22.0541 7.15783 21.7627 6.51262 21.2662C5.86741 20.7696 5.38617 20.0907 5.13125 19.3175L5.06625 19.0975L2.64 10.0413C2.37125 9.03924 2.49604 7.97236 2.98878 7.0594C3.48152 6.14643 4.30487 5.45657 5.29 5.13127L5.5125 5.06627L14.5675 2.64002C15.5695 2.37128 16.6364 2.49607 17.5494 2.98881C18.4623 3.48155 19.1522 4.3049 19.4775 5.29002V5.29127Z" fill="#CB5715"/>
</svg>
